# 3ds Max Wavefront OBJ Exporter v0.99 - (c)2007 guruware
# File Created: 03.05.2024 01:34:49

#
# object Pyramid001
#

v  0.00000000 1.00000000 -0.00000000
v  -0.50000000 0.00000000 0.50000000
v  0.50000000 0.00000000 0.50000000
v  0.50000000 0.00000000 -0.50000000
v  -0.50000000 0.00000000 -0.50000000
v  0.00000000 0.00000000 -0.00000000
# 6 vertices

vn 0.00000000 0.44721359 0.89442718
vn 0.89442718 0.44721359 -0.00000000
vn 0.00000000 0.44721359 -0.89442718
vn -0.89442718 0.44721359 -0.00000000
vn 0.00000000 -1.00000000 -0.00000000
# 5 vertex normals

vt 0.50000000 1.00000000 0.00000000
vt 0.00000000 0.00000000 0.00000000
vt 1.00000000 0.00000000 0.00000000
vt 0.00000000 1.00000000 0.00000000
vt 0.50000000 0.50000000 0.00000000
vt 1.00000000 1.00000000 0.00000000
# 6 texture coords

o Pyramid001
g Pyramid001
f 1/1/1 2/2/1 3/3/1 
f 1/1/2 3/2/2 4/3/2 
f 1/1/3 4/2/3 5/3/3 
f 1/1/4 5/2/4 2/3/4 
f 2/4/5 6/5/5 3/6/5 
f 3/6/5 6/5/5 4/3/5 
f 4/3/5 6/5/5 5/2/5 
f 5/2/5 6/5/5 2/4/5 
# 8 faces

